<?xml version="1.0" encoding="utf-8"?>
<svg xmlns="http://www.w3.org/2000/svg" viewBox="164.3581 162.0751 337.9507 337.9493" width="666.666px" height="666.667px">
  <defs>
    <clipPath clipPathUnits="userSpaceOnUse" id="clipPath18">
      <path d="m 123.269,251.713 c 0,-69.992 56.739,-126.732 126.731,-126.732 v 0 c 69.992,0 126.731,56.74 126.731,126.732 v 0 c 0,69.992 -56.739,126.731 -126.731,126.731 v 0 c -69.992,0 -126.731,-56.739 -126.731,-126.731" id="path16"/>
    </clipPath>
  </defs>
  <g id="g8" transform="matrix(1.3333332538604739, 0, 0, -1.3333332538604739, 1.4210854715202004e-14, 666.6666870117189)">
    <g id="g12">
      <g id="g14" clip-path="url(#clipPath18)">
        <g id="g20" transform="translate(123.2686,251.7127)">
          <path d="m 0,0 c 0,-69.992 56.74,-126.731 126.731,-126.731 69.993,0 126.732,56.739 126.732,126.731 0,69.992 -56.739,126.731 -126.732,126.731 C 56.74,126.731 0,69.992 0,0" style="fill:#1eccb0;fill-opacity:1;fill-rule:nonzero;stroke:none" id="path22"/>
        </g>
        <g id="g24" transform="translate(232.8913,179.8726)">
          <path d="m 0,0 c -4.851,7.915 -11.266,14.759 -18.851,20.111 -7.586,5.352 -16.184,9.101 -25.267,11.017 h -0.713 c -0.841,0 -1.646,-0.333 -2.241,-0.927 -0.594,-0.595 -0.928,-1.4 -0.928,-2.241 0.006,-0.684 0.228,-1.35 0.634,-1.901 10.62,-15.056 26.125,-25.971 43.881,-30.891 h 0.792 c 0.416,0 0.828,0.083 1.213,0.242 0.384,0.159 0.733,0.392 1.027,0.687 0.295,0.294 0.527,0.643 0.687,1.027 0.16,0.385 0.241,0.797 0.241,1.213 C 0.391,-1.091 0.231,-0.531 0,0" style="fill:#ffffff;fill-opacity:1;fill-rule:nonzero;stroke:none" id="path26"/>
        </g>
        <g id="g28" transform="translate(326.4349,272.861)">
          <path d="m 0,0 c 0.038,0.316 0.038,0.635 0,0.951 -4.111,13.969 -11.994,26.535 -22.781,36.317 -10.788,9.782 -24.063,16.4 -38.367,19.128 h -0.554 c -0.841,0 -1.646,-0.334 -2.24,-0.928 -0.595,-0.594 -0.929,-1.4 -0.929,-2.24 v -0.555 c 7.199,-43.541 2.435,-88.221 -13.782,-129.266 -0.236,-0.584 -0.641,-1.085 -1.163,-1.437 -0.522,-0.353 -1.138,-0.542 -1.767,-0.543 -0.413,-0.011 -0.823,0.061 -1.207,0.212 -0.384,0.15 -0.734,0.376 -1.029,0.664 -0.295,0.288 -0.53,0.632 -0.69,1.012 -0.16,0.38 -0.243,0.789 -0.243,1.201 0,0 -0.475,5.227 -0.792,7.92 -4.37,37.872 -15.844,74.579 -33.821,108.198 -0.176,0.424 -0.441,0.806 -0.775,1.12 -0.334,0.315 -0.732,0.555 -1.166,0.705 -0.434,0.149 -0.895,0.205 -1.353,0.164 -0.457,-0.042 -0.9,-0.18 -1.3,-0.405 -11.187,-8.558 -19.905,-19.927 -25.267,-32.951 -0.256,-0.707 -0.27,-1.479 -0.041,-2.195 0.229,-0.717 0.689,-1.337 1.308,-1.765 17.422,-10.695 31.899,-25.568 42.12,-43.272 10.222,-17.703 15.863,-37.678 16.414,-58.113 0.029,-0.757 0.322,-1.481 0.829,-2.045 0.506,-0.564 1.193,-0.933 1.943,-1.044 1.901,0 3.723,-0.476 5.624,-0.555 0.739,0.007 1.452,0.273 2.016,0.75 0.565,0.477 0.944,1.137 1.073,1.864 3.814,20.889 12.75,40.506 26.006,57.093 13.256,16.589 30.421,29.629 49.954,37.956 0.482,0.139 0.919,0.402 1.266,0.764 C -0.366,-0.934 -0.12,-0.487 0,0" style="fill:#ffffff;fill-opacity:1;fill-rule:nonzero;stroke:none" id="path30"/>
        </g>
        <g id="g32" transform="translate(318.831,212.7428)">
          <path d="m 0,0 c 0,0.84 -0.334,1.646 -0.928,2.24 -0.594,0.594 -1.4,0.928 -2.24,0.928 h -0.713 c -24.514,-5.327 -46.508,-18.781 -62.415,-38.178 -0.48,-0.577 -0.734,-1.309 -0.713,-2.059 0,-0.84 0.333,-1.646 0.927,-2.241 0.595,-0.594 1.401,-0.927 2.241,-0.927 12.916,0.777 25.445,4.706 36.491,11.444 11.046,6.739 20.273,16.08 26.875,27.209 C -0.186,-1.105 -0.023,-0.56 0,0" style="fill:#ffffff;fill-opacity:1;fill-rule:nonzero;stroke:none" id="path34"/>
        </g>
      </g>
    </g>
  </g>
</svg>